<mxfile host="drawio-plugin" agent="Mozilla/5.0 (Macintosh; Intel Mac OS X 10_15_7) AppleWebKit/537.36 (KHTML, like Gecko) Chrome/122.0.0.0 Safari/537.36" modified="2025-01-21T01:59:37.582Z" version="22.1.22" etag="8m2D6lGw1LmVcB-TkZz-" type="embed">
  <diagram name="Page-1" id="QsfysL_YBz6tTCeB-JDT">
    <mxGraphModel dx="3497" dy="4514" grid="1" gridSize="10" guides="1" tooltips="1" connect="1" arrows="1" fold="1" page="0" pageScale="1" pageWidth="850" pageHeight="1100" background="#000000" math="0" shadow="0">
      <root>
        <mxCell id="0" />
        <mxCell id="1" parent="0" />
        <mxCell id="3" value="" style="rounded=0;whiteSpace=wrap;html=1;fillColor=#000000;" vertex="1" parent="1">
          <mxGeometry x="350" y="-1190" width="2740" height="1820" as="geometry" />
        </mxCell>
        <mxCell id="4" value="&lt;font style=&quot;font-size: 36px;&quot; color=&quot;#ffffff&quot;&gt;Container&lt;br&gt;1-dimensional-module&lt;br&gt;&lt;/font&gt;" style="shape=cylinder3;whiteSpace=wrap;html=1;boundedLbl=1;backgroundOutline=1;size=15;fillStyle=auto;fillColor=none;strokeColor=#FFFFFF;strokeWidth=5;" vertex="1" parent="1">
          <mxGeometry x="1120" y="-970" width="380" height="410" as="geometry" />
        </mxCell>
        <mxCell id="6" value="&lt;font style=&quot;font-size: 36px;&quot; color=&quot;#ffffff&quot;&gt;&lt;span style=&quot;font-size: 36px;&quot;&gt;Image&lt;br&gt;PostgreSQL 14&lt;/span&gt;&lt;/font&gt;" style="shape=process;whiteSpace=wrap;html=1;backgroundOutline=1;fillStyle=auto;strokeColor=#FFFFFF;strokeWidth=5;align=center;verticalAlign=middle;fontFamily=Helvetica;fontSize=12;fontColor=default;fillColor=none;" vertex="1" parent="1">
          <mxGeometry x="880" y="130" width="410" height="190" as="geometry" />
        </mxCell>
        <mxCell id="7" value="Network&lt;br&gt;1-dimensional-module" style="ellipse;shape=cloud;whiteSpace=wrap;html=1;fillStyle=auto;strokeColor=#FFFFFF;strokeWidth=5;align=center;verticalAlign=middle;fontFamily=Helvetica;fontSize=36;fontColor=#FFFFFF;fillColor=none;" vertex="1" parent="1">
          <mxGeometry x="750" y="-360" width="650" height="220" as="geometry" />
        </mxCell>
        <mxCell id="8" value="Container&lt;br&gt;PostgreSQL" style="shape=cylinder3;whiteSpace=wrap;html=1;boundedLbl=1;backgroundOutline=1;size=15;fillStyle=auto;fillColor=none;strokeColor=#FFFFFF;strokeWidth=5;fontSize=36;fontColor=#FFFFFF;" vertex="1" parent="1">
          <mxGeometry x="640" y="-970" width="380" height="410" as="geometry" />
        </mxCell>
        <mxCell id="9" value="&lt;h1 style=&quot;font-size: 36px;&quot;&gt;Code&lt;/h1&gt;&lt;div&gt;docker-compose.yml : host port gets assigned to 5432&lt;/div&gt;&lt;div&gt;&lt;br&gt;&lt;/div&gt;" style="text;html=1;strokeColor=none;fillColor=none;spacing=5;spacingTop=-20;whiteSpace=wrap;overflow=hidden;rounded=0;fontSize=36;fontFamily=Helvetica;fontColor=#FFFFFF;" vertex="1" parent="1">
          <mxGeometry x="1940" y="-930" width="700" height="220" as="geometry" />
        </mxCell>
      </root>
    </mxGraphModel>
  </diagram>
</mxfile>
